<?xml version="1.0" encoding="UTF-8"?><svg id="a" xmlns="http://www.w3.org/2000/svg" viewBox="0 0 435.5 61.5"><defs><style>.b{fill:#393E46;}.c{isolation:isolate;}</style></defs><g class="c"><g class="c"><path class="b" d="M2,7.5h52.5c2.2,0,4.17.4,5.9,1.2,1.73.8,3.2,1.86,4.4,3.17,1.2,1.32,2.12,2.81,2.75,4.47.63,1.67.95,3.38.95,5.15s-.32,3.44-.95,5.12c-.63,1.68-1.55,3.18-2.75,4.5-1.2,1.32-2.67,2.38-4.4,3.17-1.73.8-3.7,1.2-5.9,1.2H17.8v7H2V7.5ZM17.8,19.5v4h32.7c1.47,0,2.2-.67,2.2-2s-.73-2-2.2-2H17.8Z"/><path class="b" d="M73,7.5h52.5c2.2,0,4.17.4,5.9,1.2,1.73.8,3.2,1.86,4.4,3.17,1.2,1.32,2.12,2.81,2.75,4.47.63,1.67.95,3.38.95,5.15,0,1.5-.24,2.98-.73,4.45-.48,1.47-1.18,2.82-2.1,4.05-.92,1.23-2.03,2.3-3.35,3.2-1.32.9-2.81,1.55-4.48,1.95l10.65,7.35h-20.4l-10.15-7h-20.15v7h-15.8V7.5ZM88.8,19.5v4h32.7c1.47,0,2.2-.67,2.2-2s-.73-2-2.2-2h-32.7Z"/><path class="b" d="M198,7c2.4,0,4.67.48,6.8,1.45,2.13.97,3.99,2.27,5.58,3.92,1.58,1.65,2.83,3.57,3.75,5.75.92,2.18,1.38,4.47,1.38,6.88s-.46,4.69-1.38,6.88c-.92,2.18-2.17,4.1-3.75,5.75-1.58,1.65-3.44,2.96-5.58,3.92-2.13.97-4.4,1.45-6.8,1.45h-36.5c-2.4,0-4.67-.48-6.8-1.45-2.13-.97-3.99-2.27-5.58-3.92-1.58-1.65-2.83-3.57-3.75-5.75-.92-2.18-1.38-4.47-1.38-6.88s.46-4.69,1.38-6.88c.92-2.18,2.17-4.1,3.75-5.75,1.58-1.65,3.44-2.96,5.58-3.92,2.13-.97,4.4-1.45,6.8-1.45h36.5ZM194.75,20h-30c-1.4,0-2.58.48-3.55,1.45-.97.97-1.45,2.15-1.45,3.55s.48,2.58,1.45,3.55c.97.97,2.15,1.45,3.55,1.45h30c1.4,0,2.58-.48,3.55-1.45.97-.97,1.45-2.15,1.45-3.55s-.48-2.58-1.45-3.55-2.15-1.45-3.55-1.45Z"/><path class="b" d="M244.8,19.5h-25.3V7.5h66.5v12h-25.4v23h-15.8v-23Z"/><path class="b" d="M292,7.5h65v9h-49.2v4h49.2v9h-49.2v4h49.2v9h-65V7.5Z"/><path class="b" d="M435.5,42.5h-17.8l-4.05-5h-30.8l-4.05,5h-17.8l28.35-35h17.8l28.35,35ZM405.55,27.5l-7.3-9-7.3,9h14.6Z"/></g></g></svg>